#N canvas 1172 559 227 300 12;
#X obj 33 31 inlet;
#X obj 118 31 inlet;
#X obj 33 87 > 0;
#X obj 33 110 +;
#X floatatom 33 133 5 0 0 0 - - -;
#X obj 33 155 > 0;
#X obj 33 178 change;
#X obj 33 224 outlet;
#X obj 96 57 t f b;
#X msg 128 100 0;
#X obj 33 201 sel 1;
#X connect 0 0 2 0;
#X connect 1 0 8 0;
#X connect 2 0 3 0;
#X connect 3 0 4 0;
#X connect 4 0 3 1;
#X connect 4 0 5 0;
#X connect 5 0 6 0;
#X connect 6 0 10 0;
#X connect 8 0 2 1;
#X connect 8 1 9 0;
#X connect 9 0 4 0;
#X connect 10 0 7 0;
