#N struct 1008-f float x;
#N canvas 44 44 690 701 10;
#X declare -lib cyclone;
#X obj 74 587 wiringPi;
#X obj 55 95 loadbang;
#X obj 74 610 print general-IO;
#X floatatom 230 75 5 0 0 1 target_MIDI_note - -;
#X obj 230 351 > 0;
#X obj 230 425 tgl 15 0 empty empty air 17 7 0 10 -262144 -1 -1 0 1
;
#X obj 384 424 tgl 15 0 empty empty fill 17 7 0 10 -262144 -1 -1 0
1;
#X obj 447 425 tgl 15 0 empty empty drain 17 7 0 10 -262144 -1 -1 0
1;
#X msg 374 510 digitalWrite \$1 \$2;
#X msg 230 444 5 \$1;
#X msg 384 444 6 \$1;
#X msg 447 444 22 \$1;
#X msg 16 134 \; pd dsp 1;
#N canvas 196 199 617 301 leds 0;
#X obj 473 179 until;
#X obj 473 203 f;
#X obj 515 203 + 1;
#X obj 556 203 sel 40;
#X obj 473 18 bng 15 250 50 0 empty empty empty 17 7 0 10 -262144 -1
-1;
#X obj 473 265 noteout 0 0 0;
#X obj 473 133 t b b;
#X obj 543 167 0;
#X text 493 18 ALL OFF;
#X obj 266 18 loadbang;
#X obj 30 265 noteout 0 6 0;
#X obj 264 42 bng 15 250 50 0 empty empty empty 17 7 0 10 -262144 -1
-1;
#X obj 21 152 t b b b;
#X obj 67 203 5;
#X obj 256 203 1;
#X obj 425 203 3;
#X obj 135 203 32;
#X obj 165 203 33;
#X obj 195 203 34;
#X obj 225 203 35;
#X obj 250 265 noteout 0 0 0;
#X obj 195 152 t b b;
#X obj 195 115 bng 15 250 50 0 empty empty empty 17 7 0 10 -262144
-1 -1;
#X obj 305 203 24;
#X obj 335 203 25;
#X obj 365 203 26;
#X obj 395 203 27;
#X obj 365 152 t b b;
#X obj 13 203 0;
#X obj 40 203 7;
#X obj 196 72 t b b;
#X connect 0 0 1 0;
#X connect 1 0 2 0;
#X connect 1 0 5 0;
#X connect 2 0 1 1;
#X connect 2 0 3 0;
#X connect 3 0 0 1;
#X connect 4 0 6 0;
#X connect 6 0 0 0;
#X connect 6 1 7 0;
#X connect 7 0 1 1;
#X connect 9 0 11 0;
#X connect 11 0 30 0;
#X connect 12 0 28 0;
#X connect 12 1 29 0;
#X connect 12 2 13 0;
#X connect 13 0 10 1;
#X connect 14 0 20 1;
#X connect 15 0 20 1;
#X connect 16 0 20 0;
#X connect 17 0 20 0;
#X connect 18 0 20 0;
#X connect 19 0 20 0;
#X connect 21 0 19 0;
#X connect 21 0 18 0;
#X connect 21 0 17 0;
#X connect 21 0 16 0;
#X connect 21 1 14 0;
#X connect 22 0 21 0;
#X connect 22 0 27 0;
#X connect 22 0 12 0;
#X connect 23 0 20 0;
#X connect 24 0 20 0;
#X connect 25 0 20 0;
#X connect 26 0 20 0;
#X connect 27 0 23 0;
#X connect 27 0 24 0;
#X connect 27 0 25 0;
#X connect 27 0 26 0;
#X connect 27 1 15 0;
#X connect 28 0 10 0;
#X connect 29 0 10 0;
#X connect 30 0 22 0;
#X connect 30 1 6 0;
#X restore 110 210 pd leds;
#N canvas 38 216 205 320 gpio_setup 0;
#X obj 20 96 5;
#X obj 44 96 6;
#X obj 68 96 22;
#X obj 92 96 23;
#X msg 47 175 pinMode \$1 output;
#X obj 20 51 bng 15 250 50 0 empty empty empty 17 7 0 10 -262144 -1
-1;
#X obj 20 149 t f f;
#X msg 20 201 digitalWrite \$1 0;
#X obj 20 22 inlet;
#X obj 20 237 outlet;
#X connect 0 0 6 0;
#X connect 1 0 6 0;
#X connect 2 0 6 0;
#X connect 3 0 6 0;
#X connect 4 0 9 0;
#X connect 5 0 0 0;
#X connect 5 0 1 0;
#X connect 5 0 2 0;
#X connect 5 0 3 0;
#X connect 6 0 7 0;
#X connect 6 1 4 0;
#X connect 7 0 9 0;
#X connect 8 0 5 0;
#X restore 74 183 pd gpio_setup;
#X obj 94 140 tgl 15 0 empty empty empty 17 7 0 10 -262144 -1 -1 0
1;
#X obj 94 160 s debug;
#X obj 480 324 tgl 15 0 empty empty autotune 17 7 0 10 -262144 -1 -1
0 1;
#X obj 263 324 tgl 15 0 empty empty autoblow 17 7 0 10 -262144 -1 -1
0 1;
#X obj 230 377 spigot;
#N canvas 87 193 260 447 autoblow 0;
#X obj 121 61 notein;
#X obj 121 104 select 1;
#X obj 121 141 spigot;
#X obj 190 104 > 0;
#X obj 121 414 outlet;
#X obj 10 61 loadbang;
#X obj 10 361 noteout 0 0 0;
#X obj 10 89 0;
#X obj 10 336 1;
#X obj 121 203 tgl 15 0 empty empty empty 17 7 0 10 -262144 -1 -1 0
1;
#X obj 10 308 t b f;
#X obj 10 240 select 0;
#X obj 10 260 3;
#X text 16 14 note 1 toggles autoblow;
#X connect 0 0 1 0;
#X connect 0 1 3 0;
#X connect 1 0 2 0;
#X connect 2 0 9 0;
#X connect 3 0 2 1;
#X connect 5 0 7 0;
#X connect 7 0 11 0;
#X connect 8 0 6 0;
#X connect 9 0 11 0;
#X connect 9 0 4 0;
#X connect 10 0 8 0;
#X connect 10 1 6 1;
#X connect 11 0 12 0;
#X connect 11 1 10 0;
#X connect 12 0 10 0;
#X restore 301 625 pd autoblow;
#X obj 384 377 spigot;
#X obj 447 377 spigot;
#N canvas 709 67 471 591 pitch_detect 0;
#X obj 112 436 outlet;
#X obj 112 44 *~ 2;
#X floatatom 112 176 5 0 0 0 current_MIDI_note - -;
#X obj 112 290 spigot;
#X obj 213 229 < 40;
#X msg 213 289 0;
#X obj 112 155 spigot;
#X obj 157 133 > 10;
#X floatatom 112 346 5 0 0 0 - - -;
#X obj 112 113 sigmund~;
#X obj 234 18 inlet;
#X msg 244 69 40;
#X obj 244 46 loadbang;
#X obj 127 242 >= 39;
#X floatatom 234 88 5 0 0 0 - - -;
#X obj 249 229 > 90;
#X obj 213 258 ||;
#X obj 166 242 <= 90;
#X obj 145 266 &&;
#X obj 112 196 t f f f f f;
#X text 276 15 lower limit (MIDI Note value), f 17;
#N canvas 676 529 260 243 print_dB 0;
#X obj 171 19 inlet~;
#X obj 171 47 env~ 128;
#X obj 171 72 - 100;
#X obj 35 136 f;
#X obj 35 204 print input_dB;
#X obj 35 68 loadbang;
#X obj 159 120 r debug;
#X obj 35 173 spigot;
#X obj 35 97 metro 1000;
#X connect 0 0 1 0;
#X connect 1 0 2 0;
#X connect 2 0 3 1;
#X connect 3 0 7 0;
#X connect 5 0 8 0;
#X connect 7 0 4 0;
#X connect 8 0 3 0;
#X restore 152 44 pd print_dB;
#X obj 112 18 adc~;
#N canvas 263 112 394 457 print_pitch 0;
#X obj 16 19 inlet;
#X obj 58 256 r debug;
#X obj 16 302 print pitch_det;
#X obj 16 53 f;
#X obj 16 280 spigot;
#X obj 43 221 mtof;
#X obj 16 243 pack;
#X obj 16 202 t f f;
#X obj 49 141 > 0;
#X obj 16 163 spigot;
#X obj 16 93 t f f;
#X connect 0 0 3 0;
#X connect 1 0 4 1;
#X connect 3 0 10 0;
#X connect 4 0 2 0;
#X connect 5 0 6 1;
#X connect 6 0 4 0;
#X connect 7 0 6 0;
#X connect 7 1 5 0;
#X connect 8 0 9 1;
#X connect 9 0 7 0;
#X connect 10 0 9 0;
#X connect 10 1 8 0;
#X restore 148 414 pd print_pitch;
#X obj 112 67 hip~ 60;
#X obj 112 90 lop~ 1000;
#N canvas 0 110 139 246 indicator_led 0;
#X obj 18 21 inlet;
#X obj 18 102 t b b;
#X obj 18 82 bng 15 250 50 0 empty empty empty 17 7 0 10 -262144 -1
-1;
#X obj 18 162 noteout 0 0 0;
#X obj 18 132 39;
#X obj 18 53 sel 0;
#X obj 57 102 t b b;
#X obj 57 82 bng 15 250 50 0 empty empty empty 17 7 0 10 -262144 -1
-1;
#X obj 45 132 0;
#X obj 84 132 1;
#X connect 0 0 5 0;
#X connect 1 0 4 0;
#X connect 1 1 8 0;
#X connect 2 0 1 0;
#X connect 4 0 3 0;
#X connect 5 0 2 0;
#X connect 5 1 7 0;
#X connect 6 0 4 0;
#X connect 6 1 9 0;
#X connect 7 0 6 0;
#X connect 8 0 3 1;
#X connect 9 0 3 1;
#X restore 165 388 pd indicator_led;
#X connect 1 0 24 0;
#X connect 2 0 19 0;
#X connect 3 0 8 0;
#X connect 4 0 16 0;
#X connect 5 0 8 0;
#X connect 6 0 2 0;
#X connect 7 0 6 1;
#X connect 8 0 23 0;
#X connect 8 0 26 0;
#X connect 8 0 0 0;
#X connect 9 0 6 0;
#X connect 9 1 7 0;
#X connect 10 0 14 0;
#X connect 11 0 14 0;
#X connect 12 0 11 0;
#X connect 13 0 18 0;
#X connect 14 0 13 1;
#X connect 14 0 4 1;
#X connect 15 0 16 1;
#X connect 16 0 5 0;
#X connect 17 0 18 1;
#X connect 18 0 3 1;
#X connect 19 0 3 0;
#X connect 19 1 13 0;
#X connect 19 2 17 0;
#X connect 19 3 4 0;
#X connect 19 4 15 0;
#X connect 22 0 1 0;
#X connect 22 0 21 0;
#X connect 24 0 25 0;
#X connect 25 0 9 0;
#X restore 421 145 pd pitch_detect;
#X floatatom 421 266 5 0 0 1 current_MIDI_note - -;
#N canvas 269 144 435 439 target_note 0;
#X obj 121 164 f;
#X obj 57 161 f;
#X obj 14 83 > 39;
#X obj 30 129 t b b;
#X obj 14 103 select 1;
#X obj 121 183 > 0;
#X obj 121 202 select 1;
#X obj 42 241 f;
#X obj 126 308 ==;
#X obj 126 266 f;
#X obj 126 327 select 1;
#X obj 126 346 0;
#X floatatom 96 386 5 0 0 0 - - -;
#X obj 146 235 bng 15 250 50 0 empty empty empty 17 7 0 10 -262144
-1 -1;
#X obj 45 53 t f f;
#X obj 42 260 t f f;
#X obj 96 405 outlet;
#X text 211 90 consider all MIDI notes > 39;
#X text 210 180 return note if velocity > 0;
#X text 211 265 note off only for last played note;
#X obj 45 18 inlet;
#X obj 136 18 inlet;
#X text 14 17 note;
#X text 173 18 velocity;
#X connect 0 0 5 0;
#X connect 1 0 7 1;
#X connect 1 0 9 1;
#X connect 2 0 4 0;
#X connect 3 0 0 0;
#X connect 3 1 1 0;
#X connect 4 0 3 0;
#X connect 5 0 6 0;
#X connect 6 0 7 0;
#X connect 6 1 13 0;
#X connect 7 0 15 0;
#X connect 8 0 10 0;
#X connect 9 0 8 0;
#X connect 10 0 11 0;
#X connect 11 0 12 0;
#X connect 12 0 16 0;
#X connect 13 0 9 0;
#X connect 14 0 2 0;
#X connect 14 1 1 1;
#X connect 15 0 12 0;
#X connect 15 1 8 1;
#X connect 20 0 14 0;
#X connect 21 0 0 1;
#X restore 230 49 pd target_note;
#X obj 55 114 t b b b;
#X obj 565 145 pitch_estimation;
#X obj 541 24 loadbang;
#X msg 541 44 56;
#X obj 421 223 spigot;
#X obj 598 203 == 0;
#X obj 565 223 spigot;
#X obj 521 166 tgl 15 0 empty empty air 17 7 0 10 -262144 -1 -1 0 1
;
#N canvas 0 23 450 300 utility 0;
#X floatatom 35 108 5 0 0 0 - - -;
#N canvas 666 211 308 360 pitch_timer 0;
#X obj 19 13 inlet;
#X obj 85 13 inlet;
#X obj 185 13 inlet;
#X obj 229 59 notein;
#X obj 222 81 == 7;
#X obj 252 81 == 0;
#X obj 230 103 &&;
#X obj 230 123 sel 1;
#X obj 230 143 bng 15 250 50 0 empty empty empty 17 7 0 10 -262144
-1 -1;
#X obj 70 200 f;
#X obj 170 200 f;
#X obj 57 277 timer;
#X obj 19 221 bang_once;
#X obj 19 240 bng 15 250 50 0 empty empty empty 17 7 0 10 -262144 -1
-1;
#X obj 119 221 bang_once;
#X obj 119 240 bng 15 250 50 0 empty empty empty 17 7 0 10 -262144
-1 -1;
#X floatatom 57 297 5 0 0 0 - - -;
#X obj 57 316 print timer;
#X floatatom 19 105 5 0 0 0 - - -;
#X connect 0 0 18 0;
#X connect 1 0 9 1;
#X connect 2 0 10 1;
#X connect 3 0 4 0;
#X connect 3 1 5 0;
#X connect 4 0 6 0;
#X connect 5 0 6 1;
#X connect 6 0 7 0;
#X connect 7 0 8 0;
#X connect 8 0 9 0;
#X connect 8 0 10 0;
#X connect 9 0 12 1;
#X connect 10 0 14 1;
#X connect 11 0 16 0;
#X connect 12 0 13 0;
#X connect 13 0 11 0;
#X connect 14 0 15 0;
#X connect 15 0 11 1;
#X connect 16 0 17 0;
#X connect 18 0 12 0;
#X connect 18 0 14 0;
#X restore 35 161 pd pitch_timer;
#X msg 75 135 60;
#X msg 116 135 61;
#X obj 75 108 loadbang;
#X obj 36 41 inlet;
#X text 86 44 pitch detection here;
#X text 156 134 the 2 notes to measure modulation time between;
#X connect 0 0 1 0;
#X connect 2 0 1 1;
#X connect 3 0 1 2;
#X connect 4 0 2 0;
#X connect 4 0 3 0;
#X connect 5 0 0 0;
#X restore 142 97 pd utility;
#X obj 176 467 s air;
#X obj 521 145 r air;
#N canvas 700 134 368 431 autotune 0;
#X obj 113 21 inlet;
#X obj 230 21 inlet;
#X obj 72 384 outlet;
#X obj 148 384 outlet;
#X floatatom 113 75 5 0 0 0 target_MIDI_note - -;
#X obj 72 357 tgl 15 0 empty empty fill 17 7 0 10 -262144 -1 -1 0 1
;
#X obj 148 357 tgl 15 0 empty empty drain 17 7 0 10 -262144 -1 -1 0
1;
#X obj 148 258 >;
#X obj 72 261 <;
#X obj 72 336 &&;
#X obj 148 336 &&;
#X floatatom 275 75 5 0 0 0 current_MIDI_note - -;
#X obj 230 42 moses 40;
#X obj 228 231 > 0;
#X obj 148 223 f;
#X obj 72 223 f;
#X obj 113 108 t b f f;
#X floatatom 106 223 5 0 0 0 - - -;
#X obj 246 108 + 0.09;
#X obj 290 108 - 0.09;
#X connect 0 0 4 0;
#X connect 1 0 12 0;
#X connect 4 0 16 0;
#X connect 5 0 2 0;
#X connect 6 0 3 0;
#X connect 7 0 10 0;
#X connect 8 0 9 0;
#X connect 9 0 5 0;
#X connect 10 0 6 0;
#X connect 11 0 18 0;
#X connect 11 0 19 0;
#X connect 12 1 11 0;
#X connect 13 0 10 1;
#X connect 13 0 9 1;
#X connect 14 0 7 0;
#X connect 15 0 8 0;
#X connect 16 0 14 0;
#X connect 16 0 15 0;
#X connect 16 1 17 0;
#X connect 16 2 13 0;
#X connect 17 0 8 1;
#X connect 17 0 7 1;
#X connect 18 0 15 0;
#X connect 19 0 14 0;
#X restore 384 304 pd autotune;
#X obj 529 425 tgl 15 0 empty empty pump 17 7 0 10 -262144 -1 -1 0
1;
#N canvas 314 95 490 348 button_air 1;
#X obj 59 15 notein;
#X obj 60 59 f;
#X obj 18 37 select 0;
#X obj 155 226 outlet;
#X obj 196 14 notein;
#X obj 196 37 route 32 24;
#X msg 196 60 1;
#X msg 227 60 0;
#X connect 0 0 2 0;
#X connect 0 1 1 1;
#X connect 1 0 3 0;
#X connect 2 0 1 0;
#X connect 4 0 5 0;
#X connect 5 0 6 0;
#X connect 5 1 7 0;
#X connect 6 0 3 0;
#X connect 7 0 3 0;
#X restore 377 606 pd button_air;
#N canvas 66 151 248 212 button_fill 0;
#X obj 19 21 notein;
#X obj 19 44 route 33 25;
#X obj 23 160 outlet;
#X msg 19 67 1;
#X msg 61 70 0;
#X connect 0 0 1 0;
#X connect 1 0 3 0;
#X connect 1 1 4 0;
#X connect 3 0 2 0;
#X connect 4 0 2 0;
#X restore 377 587 pd button_fill;
#N canvas 233 358 142 153 button_drain 0;
#X obj 15 22 notein;
#X obj 15 45 route 34 26;
#X msg 15 68 1;
#X msg 46 68 0;
#X obj 15 107 outlet;
#X connect 0 0 1 0;
#X connect 1 0 2 0;
#X connect 1 1 3 0;
#X connect 2 0 4 0;
#X connect 3 0 4 0;
#X restore 377 568 pd button_drain;
#N canvas 86 164 143 168 button_pump 0;
#X obj 6 14 notein;
#X obj 6 37 route 35 27;
#X msg 6 60 1;
#X msg 37 60 0;
#X obj 6 100 outlet;
#X connect 0 0 1 0;
#X connect 1 0 2 0;
#X connect 1 1 3 0;
#X connect 2 0 4 0;
#X connect 3 0 4 0;
#X restore 377 625 pd button_pump;
#X msg 529 444 23 \$1;
#X text 469 44 lowest note;
#X obj 421 184 median;
#N canvas 577 284 287 363 read_midi 1;
#X obj 40 98 notein;
#X obj 40 275 outlet;
#X obj 82 275 outlet;
#X floatatom 40 142 5 0 0 0 note - -;
#X floatatom 82 142 5 0 0 1 velocity - -;
#X obj 54 15 declare -lib cyclone;
#X obj 98 97 midiparse, f 14;
#X obj 98 54 bng 15 250 50 0 empty empty empty 17 7 0 10 -262144 -1
-1;
#X obj 98 115 unpack;
#X msg 116 54 read midifile.mid;
#X obj 98 78 seq;
#N canvas 883 343 271 253 button_air 1;
#X obj 61 71 f;
#X obj 19 49 select 0;
#X obj 116 44 route 32 24;
#X msg 116 67 1;
#X msg 147 67 0;
#X obj 19 10 inlet;
#X obj 76 10 inlet;
#X obj 106 146 s midi_air;
#X floatatom 106 114 5 0 0 0 - - -;
#X connect 0 0 8 0;
#X connect 1 0 0 0;
#X connect 2 0 3 0;
#X connect 2 1 4 0;
#X connect 3 0 8 0;
#X connect 4 0 8 0;
#X connect 5 0 1 0;
#X connect 5 0 2 0;
#X connect 6 0 0 1;
#X connect 8 0 7 0;
#X restore 173 210 pd button_air;
#N canvas 66 121 248 212 button_fill 0;
#X obj 19 48 route 33 25;
#X msg 19 67 1;
#X msg 50 67 0;
#X obj 19 25 inlet;
#X obj 33 101 s midi_fill;
#X connect 0 0 1 0;
#X connect 0 1 2 0;
#X connect 1 0 4 0;
#X connect 2 0 4 0;
#X connect 3 0 0 0;
#X restore 173 228 pd button_fill;
#N canvas 233 358 142 153 button_drain 0;
#X obj 15 45 route 34 26;
#X msg 15 68 1;
#X msg 46 68 0;
#X obj 15 22 inlet;
#X obj 15 107 s midi_drain;
#X connect 0 0 1 0;
#X connect 0 1 2 0;
#X connect 1 0 4 0;
#X connect 2 0 4 0;
#X connect 3 0 0 0;
#X restore 173 246 pd button_drain;
#N canvas 86 164 143 168 button_pump 0;
#X obj 6 37 route 35 27;
#X msg 6 60 1;
#X msg 37 60 0;
#X obj 6 14 inlet;
#X obj 6 100 s midi_pump;
#X connect 0 0 1 0;
#X connect 0 1 2 0;
#X connect 1 0 4 0;
#X connect 2 0 4 0;
#X connect 3 0 0 0;
#X restore 173 264 pd button_pump;
#N canvas 59 224 260 360 autoblow 0;
#X obj 121 104 select 1;
#X obj 121 141 spigot;
#X obj 190 104 > 0;
#X obj 10 61 loadbang;
#X obj 10 317 noteout 0 0 0;
#X obj 10 89 0;
#X obj 10 292 1;
#X obj 121 168 tgl 15 0 empty empty empty 17 7 0 10 -262144 -1 -1 0
1;
#X obj 10 264 t b f;
#X obj 10 205 select 0;
#X obj 10 225 3;
#X text 16 14 note 1 toggles autoblow;
#X obj 121 39 inlet;
#X obj 190 39 inlet;
#X obj 121 317 s midi_autoblow;
#X connect 0 0 1 0;
#X connect 1 0 7 0;
#X connect 2 0 1 1;
#X connect 3 0 5 0;
#X connect 5 0 9 0;
#X connect 6 0 4 0;
#X connect 7 0 9 0;
#X connect 7 0 14 0;
#X connect 8 0 6 0;
#X connect 8 1 4 1;
#X connect 9 0 10 0;
#X connect 9 1 8 0;
#X connect 10 0 8 0;
#X connect 12 0 0 0;
#X connect 13 0 2 0;
#X restore 173 282 pd autoblow;
#N canvas 56 331 260 321 autotune 0;
#X obj 121 121 spigot;
#X obj 190 84 > 0;
#X obj 10 41 loadbang;
#X obj 10 278 noteout 0 0 0;
#X obj 10 69 0;
#X obj 121 143 tgl 15 0 empty empty empty 17 7 0 10 -262144 -1 -1 0
1;
#X obj 10 238 t b f;
#X obj 10 180 select 0;
#X obj 10 200 3;
#X obj 121 84 select 2;
#X text 16 14 note 2 toggles autotune;
#X obj 10 257 2;
#X obj 121 41 inlet;
#X obj 190 41 inlet;
#X obj 121 278 s midi_autotune;
#X connect 0 0 5 0;
#X connect 1 0 0 1;
#X connect 2 0 4 0;
#X connect 4 0 7 0;
#X connect 5 0 7 0;
#X connect 5 0 14 0;
#X connect 6 0 11 0;
#X connect 6 1 3 1;
#X connect 7 0 8 0;
#X connect 7 1 6 0;
#X connect 8 0 6 0;
#X connect 9 0 0 0;
#X connect 11 0 3 0;
#X connect 12 0 9 0;
#X connect 13 0 1 0;
#X restore 173 300 pd autotune;
#X connect 0 0 3 0;
#X connect 0 1 4 0;
#X connect 3 0 11 0;
#X connect 3 0 12 0;
#X connect 3 0 13 0;
#X connect 3 0 1 0;
#X connect 3 0 14 0;
#X connect 3 0 15 0;
#X connect 3 0 16 0;
#X connect 4 0 11 1;
#X connect 4 0 2 0;
#X connect 4 0 15 1;
#X connect 4 0 16 1;
#X connect 6 0 8 0;
#X connect 7 0 10 0;
#X connect 8 0 3 0;
#X connect 8 1 4 0;
#X connect 9 0 10 0;
#X connect 10 0 6 0;
#X restore 230 23 pd read_midi;
#X obj 161 377 r midi_air;
#X obj 309 377 r midi_fill;
#X obj 492 377 r midi_drain;
#X obj 529 406 r midi_pump;
#N canvas 56 331 260 447 autotune 0;
#X obj 121 41 notein;
#X obj 121 121 spigot;
#X obj 190 84 > 0;
#X obj 121 394 outlet;
#X obj 10 41 loadbang;
#X obj 10 341 noteout 0 0 0;
#X obj 10 69 0;
#X obj 121 183 tgl 15 0 empty empty empty 17 7 0 10 -262144 -1 -1 0
1;
#X obj 10 288 t b f;
#X obj 10 220 select 0;
#X obj 10 240 3;
#X obj 121 84 select 2;
#X text 16 14 note 2 toggles autotune;
#X obj 10 316 2;
#X connect 0 0 11 0;
#X connect 0 1 2 0;
#X connect 1 0 7 0;
#X connect 2 0 1 1;
#X connect 4 0 6 0;
#X connect 6 0 9 0;
#X connect 7 0 9 0;
#X connect 7 0 3 0;
#X connect 8 0 13 0;
#X connect 8 1 5 1;
#X connect 9 0 10 0;
#X connect 9 1 8 0;
#X connect 10 0 8 0;
#X connect 11 0 1 0;
#X connect 13 0 5 0;
#X restore 301 606 pd autotune;
#X obj 480 304 r midi_autotune;
#X obj 263 304 r midi_autoblow;
#X connect 0 0 2 0;
#X connect 1 0 26 0;
#X connect 3 0 4 0;
#X connect 3 0 37 0;
#X connect 3 0 27 0;
#X connect 4 0 19 0;
#X connect 5 0 9 0;
#X connect 5 0 35 0;
#X connect 6 0 10 0;
#X connect 7 0 11 0;
#X connect 8 0 0 0;
#X connect 9 0 8 0;
#X connect 10 0 8 0;
#X connect 11 0 8 0;
#X connect 14 0 0 0;
#X connect 15 0 16 0;
#X connect 17 0 21 1;
#X connect 17 0 22 1;
#X connect 18 0 19 1;
#X connect 19 0 5 0;
#X connect 21 0 6 0;
#X connect 22 0 7 0;
#X connect 23 0 45 0;
#X connect 24 0 37 1;
#X connect 25 0 3 0;
#X connect 26 0 12 0;
#X connect 26 1 14 0;
#X connect 27 0 32 0;
#X connect 28 0 29 0;
#X connect 29 0 23 0;
#X connect 29 0 27 1;
#X connect 30 0 24 0;
#X connect 30 0 27 1;
#X connect 31 0 32 1;
#X connect 32 0 24 0;
#X connect 33 0 30 1;
#X connect 33 0 31 0;
#X connect 36 0 33 0;
#X connect 37 0 21 0;
#X connect 37 1 22 0;
#X connect 38 0 43 0;
#X connect 43 0 8 0;
#X connect 45 0 30 0;
#X connect 46 0 25 0;
#X connect 46 1 25 1;
#X connect 47 0 5 0;
#X connect 48 0 6 0;
#X connect 49 0 7 0;
#X connect 50 0 38 0;
#X connect 52 0 17 0;
#X connect 53 0 18 0;
