#N canvas 505 109 435 440 10;
#X obj 125 373 wiringPi;
#X obj 50 146 5;
#X obj 74 146 6;
#X obj 98 146 22;
#X obj 122 146 23;
#X msg 127 275 pinMode \$1 output;
#X obj 74 25 loadbang;
#X obj 65 91 bng 15 250 50 0 empty empty empty 17 7 0 10 -262144 -1
-1;
#X obj 125 396 print general-IO;
#X obj 50 219 t f f;
#X msg 60 311 digitalWrite \$1 0;
#N canvas 1265 248 532 559 lpd8 0;
#X obj 208 15 notein;
#X msg 275 384 digitalWrite \$1 \$2;
#X msg 193 133 5 1;
#X msg 221 133 5 0;
#X msg 249 133 6 1;
#X msg 277 133 6 0;
#X obj 245 59 route 40 36 41 37 42 38 43 39;
#X msg 305 133 22 1;
#X msg 339 133 22 0;
#X msg 373 133 23 1;
#X msg 407 133 23 0;
#X obj 221 505 outlet;
#X connect 0 0 6 0;
#X connect 1 0 11 0;
#X connect 2 0 1 0;
#X connect 3 0 1 0;
#X connect 4 0 1 0;
#X connect 5 0 1 0;
#X connect 6 0 2 0;
#X connect 6 1 3 0;
#X connect 6 2 4 0;
#X connect 6 3 5 0;
#X connect 6 4 7 0;
#X connect 6 5 8 0;
#X connect 6 6 9 0;
#X connect 6 7 10 0;
#X connect 7 0 1 0;
#X connect 8 0 1 0;
#X connect 9 0 1 0;
#X connect 10 0 1 0;
#X restore 258 310 pd lpd8;
#X connect 0 0 8 0;
#X connect 1 0 9 0;
#X connect 2 0 9 0;
#X connect 3 0 9 0;
#X connect 4 0 9 0;
#X connect 5 0 0 0;
#X connect 6 0 7 0;
#X connect 7 0 1 0;
#X connect 7 0 2 0;
#X connect 7 0 3 0;
#X connect 7 0 4 0;
#X connect 9 0 10 0;
#X connect 9 1 5 0;
#X connect 10 0 0 0;
#X connect 11 0 0 0;
