#N struct 1004-f float x;
#N canvas 388 190 441 291 12;
#X declare -path list-abs -lib list-abs;
#X obj 60 86 list split 5;
#X obj 144 150 declare -path list-abs -lib list-abs;
#X obj 60 113 list-sort;
#X obj 60 63 list;
#X obj 25 209 list store;
#X msg 25 179 get 2 1;
#X obj 60 28 inlet;
#X obj 25 237 outlet;
#X obj 60 150 t b l;
#X text 153 24 this patch gets the median of last 5 values;
#X connect 0 0 3 1;
#X connect 0 0 2 0;
#X connect 0 2 3 1;
#X connect 2 0 8 0;
#X connect 3 0 0 0;
#X connect 4 0 7 0;
#X connect 5 0 4 0;
#X connect 6 0 3 0;
#X connect 8 0 5 0;
#X connect 8 1 4 1;
