#N canvas 256 23 896 908 12;
#N canvas 0 22 450 278 (subpatch) 0;
#X array array_pt 80 float 3;
#A 0 1 1 1 1 1 5 5 5 4 4 4 4 3 3 3 3 3 2 2 2 2 2 2 2 1 1 1 1 1 1 1
1 1 1 1 1 9 9 8 8 7 7 6 6 6 5 5 5 4 4 4 4 3 3 3 3 3000 3000 3000 3000
3000 3000 3000 3000 2300 1900 1600 1480 1360 1250 1140 1020 905 800
690 600 515 460 0 0;
#X coords 0 4000 80 0 200 140 1 0 0;
#X restore 658 123 graph;
#X msg 657 59 \; array_pt read pitch_times.txt;
#X floatatom 153 743 5 0 0 0 note_estimation - -;
#X obj 153 674 pack f f;
#X msg 153 697 \$1 \$2;
#X obj 255 548 tabread array_pt;
#X floatatom 255 570 5 0 0 0 - - -;
#X floatatom 560 235 5 0 0 0 current_note - -;
#X floatatom 107 182 5 0 0 1 target_note - -;
#X obj 75 11 inlet;
#X obj 657 34 loadbang;
#X obj 560 35 inlet;
#X obj 108 871 outlet;
#X obj 599 137 > 0;
#X obj 560 160 spigot;
#X obj 560 113 t f f;
#X obj 146 95 > 39;
#X obj 107 72 t f f;
#X obj 107 118 spigot;
#X floatatom 255 527 5 0 0 0 array_index - -;
#X obj 75 45 sel 0;
#X msg 75 350 stop;
#X floatatom 309 215 5 0 0 0 current_note - -;
#X obj 176 274 >;
#N canvas 897 250 279 389 fraction 0;
#X obj 83 17 inlet;
#X obj 112 343 outlet;
#X obj 203 16 inlet;
#X obj 83 98 -;
#X floatatom 83 121 5 0 0 0 fraction - -;
#X obj 16 191 1;
#X obj 30 212 -;
#X floatatom 30 235 5 0 0 0 up - -;
#X floatatom 178 230 5 0 0 0 down - -;
#X obj 16 170 t b f;
#X obj 83 54 t f f;
#X obj 115 75 i;
#X obj 177 118 > 0;
#X obj 30 263 spigot;
#X obj 217 118 <= 0;
#X obj 178 258 spigot;
#X floatatom 112 316 5 0 0 0 - - -;
#X connect 0 0 10 0;
#X connect 2 0 12 0;
#X connect 2 0 14 0;
#X connect 3 0 4 0;
#X connect 4 0 8 0;
#X connect 4 0 9 0;
#X connect 5 0 6 0;
#X connect 6 0 7 0;
#X connect 7 0 13 0;
#X connect 8 0 15 0;
#X connect 9 0 5 0;
#X connect 9 1 6 1;
#X connect 10 0 3 0;
#X connect 10 1 11 0;
#X connect 11 0 3 1;
#X connect 12 0 13 1;
#X connect 13 0 16 0;
#X connect 14 0 15 1;
#X connect 15 0 16 0;
#X connect 16 0 1 0;
#X restore 318 441 pd fraction;
#X msg 374 384 1;
#X msg 406 384 0;
#X floatatom 318 464 5 0 0 0 - - -;
#X obj 255 505 i;
#X obj 280 603 *;
#X obj 221 273 <;
#X text 135 271 up;
#X text 240 273 down;
#X obj 374 362 sel 1;
#X obj 399 675 i;
#X obj 490 514 change;
#X msg 519 479 set \$1;
#X obj 519 457 i;
#X obj 144 361 i;
#X obj 144 408 + 1;
#X floatatom 173 602 5 0 0 0 next - -;
#X obj 144 448 spigot;
#X obj 212 446 spigot;
#X msg 361 644 \$1;
#X obj 487 434 t f f;
#X obj 318 405 f;
#X obj 335 129 bng 15 250 50 0 empty empty empty 17 7 0 10 -262144
-1 -1;
#X obj 177 790 s note_est;
#X obj 309 187 r note_est;
#X obj 108 210 t b b b f;
#X floatatom 280 626 5 0 0 0 - - -;
#X obj 153 720 line 0 1;
#X obj 348 105 delay 2;
#X obj 191 419 - 0.001;
#X connect 2 0 12 0;
#X connect 2 0 34 0;
#X connect 2 0 47 0;
#X connect 3 0 4 0;
#X connect 4 0 51 0;
#X connect 5 0 6 0;
#X connect 6 0 29 0;
#X connect 7 0 44 0;
#X connect 8 0 49 0;
#X connect 9 0 20 0;
#X connect 10 0 1 0;
#X connect 11 0 15 0;
#X connect 13 0 14 1;
#X connect 14 0 7 0;
#X connect 15 0 14 0;
#X connect 15 1 13 0;
#X connect 16 0 18 1;
#X connect 17 0 18 0;
#X connect 17 1 16 0;
#X connect 18 0 8 0;
#X connect 19 0 5 0;
#X connect 20 0 21 0;
#X connect 20 1 17 0;
#X connect 21 0 51 0;
#X connect 22 0 23 1;
#X connect 22 0 30 1;
#X connect 22 0 28 1;
#X connect 22 0 45 1;
#X connect 22 0 38 1;
#X connect 23 0 33 0;
#X connect 23 0 41 1;
#X connect 24 0 27 0;
#X connect 25 0 24 1;
#X connect 26 0 24 1;
#X connect 27 0 29 1;
#X connect 28 0 19 0;
#X connect 29 0 50 0;
#X connect 30 0 42 1;
#X connect 33 0 25 0;
#X connect 33 1 26 0;
#X connect 34 0 35 0;
#X connect 35 0 52 0;
#X connect 36 0 35 0;
#X connect 37 0 36 0;
#X connect 38 0 39 0;
#X connect 38 0 53 0;
#X connect 39 0 41 0;
#X connect 40 0 3 0;
#X connect 41 0 40 0;
#X connect 42 0 40 0;
#X connect 43 0 51 0;
#X connect 44 0 43 0;
#X connect 44 1 37 0;
#X connect 45 0 24 0;
#X connect 46 0 8 0;
#X connect 48 0 22 0;
#X connect 49 0 38 0;
#X connect 49 1 28 0;
#X connect 49 2 45 0;
#X connect 49 3 30 0;
#X connect 49 3 23 0;
#X connect 50 0 3 1;
#X connect 51 0 2 0;
#X connect 52 0 46 0;
#X connect 53 0 42 0;
